# xmcd CD database file
#
# Track frame offsets:
#	150
#	20845
#	33805
#	50666
#	69046
#	100734
#	118878
#	136529
#	163442
#	182561
#	199435
#	217588
#	236858
#	251035
#	264952
#	284147
#	307986
#	323204
#
# Disc length: 4654 seconds
#
# Revision: 1
# Processed by: cddbd v1.5.2PL0 Copyright (c) Steve Scherf et al.
# Submitted via: CDex 1.51
#
DISCID=08122c12
DTITLE=Various Artist - MRH-107
DYEAR=1900
DGENRE=Blues
TTITLE0=Artic Monkeys - Do I Wanna Know
TTITLE1=Kona Pop Ft Charli XCX - I Love It
TTITLE2=Michael Buble - Close Your Eyes
TTITLE3=Selena Gomez - Come and Get It
TTITLE4=Justin Timberlake - Tunnel Vision
TTITLE5=Pink Ft Rose Cooper - True Love
TTITLE6=John Newman - Love Me Again
TTITLE7=Jay-Z Ft Justin Timberlake - Holy Grail
TTITLE8=Tom Odell - Another Love
TTITLE9=Lawson Ft B.O.B - Brokenhearted
TTITLE10=Luke Bryan - Crash My Party
TTITLE11=Avicii Ft Aloe Blacc - Wake Me Up
TTITLE12=Will.i.am - Bang Bang
TTITLE13=Gabz - Lighters (the one)
TTITLE14=Chas And Status Ft Louis Matters - Lost and Not Found
TTITLE15=Kendrick Lamar - Don't Kill My Vibe
TTITLE16=Kanye West - Black Skinhead
TTITLE17=Rudimental - Right Here
EXTD=
EXTT0=
EXTT1=
EXTT2=
EXTT3=
EXTT4=
EXTT5=
EXTT6=
EXTT7=
EXTT8=
EXTT9=
EXTT10=
EXTT11=
EXTT12=
EXTT13=
EXTT14=
EXTT15=
EXTT16=
EXTT17=
PLAYORDER=
